<svg xmlns="http://www.w3.org/2000/svg" width="176" height="52" fill="none">
  <path fill="#fff" d="M7.77 23.38l2.64-1.3 4.18-6.29 1.28-.52 1.37 6.37-1.8.26-1.36-2.62-1.02 4.1h4.52l4.7 1.22 1.87-1.22 3.16 3.32 1.36-6.1 2.22 2.26 1.37-1.92 2.21-.61 3.25-3.05.5-1.49 2.65.44 1.11 1.48-1.96 4.19 4.87-2.53v-1.22l1.87-.44 2.05 2.1 2.05-2.53v-1.75l3.33-2.36 1.36-2h2.14l3.75-7.77L64.68 0l1.2 1.92L64 4.36l.68 1.57 1.8.35 1.45 6.46v5.4l2.56 3.58 1.28 4.98-4.44-2.88-1.96-8.29-1.2.26-.17 5.59-3.24 5.32-.94 8.11 2.22.53.94-1.14 2.13 2.44 1.62 7.33-.17 4.71h-2.05l-.77-6.63-1.45 2.01-3.15-.7-2.56-2.18-2.9 1.05.17 4.71-2.3.61-3.42 2.62-4.1-.53-1.62-.96-2.56.44.85 1.05-2.04 1.22-1.63-.79-3.07 1.4-4.7-2.36-1.78-4.18-1.54.17-1.8-1.48-.08-1.14-5.71-.6-.94 3.13-3.59-1.65-1.79-3.06H8.2l-.42 4.89-2.22.7-1.11 4.45-.86-.79L0 40.74l4.27-2.09-.69-4.1-.68-4.19 1.88-2.7-.6-1.66 2.56-2.8 1.03.18zm56.74 10.3l3.93 5.93 1.28-.52-1.62-2.45-3.59-3.83v.87zm-40.1-12.04v-1.75l2.98-2.18 2.56-1.3h-2.98l-2.65 1.56-1.62 1.49v2.18h1.7zM89.83 41h4.72v-5.18h2.62c3.97 0 6.63-2.35 6.63-6.1 0-3.72-2.6-6.17-6.46-6.17h-7.5V41zm4.72-8.86v-4.81h1.67c1.66 0 2.65.89 2.65 2.39 0 1.49-1 2.42-2.65 2.42h-1.67zM111.6 41.24c4.25 0 6.77-2.73 6.77-6.75s-2.52-6.75-6.77-6.75c-4.24 0-6.76 2.73-6.76 6.75s2.52 6.75 6.76 6.75zm.04-3.48c-1.26 0-2-1.25-2-3.3 0-2.06.74-3.31 2-3.31 1.19 0 1.94 1.25 1.94 3.3 0 2.06-.75 3.31-1.94 3.31zM126.56 41.24c3.86 0 6.23-2.23 6.28-5.7h-4.35c-.1 1.38-.84 2.12-1.87 2.12-1.23 0-2.04-1.06-2.04-3.2 0-2.15.81-3.21 2.04-3.21 1.04 0 1.75.74 1.87 2.11h4.35c-.02-3.4-2.44-5.62-6.28-5.62-4.25 0-6.77 2.73-6.77 6.75s2.52 6.75 6.77 6.75zM141.06 41.24c3.87 0 6.24-2.23 6.29-5.7H143c-.1 1.38-.84 2.12-1.87 2.12-1.23 0-2.04-1.06-2.04-3.2 0-2.15.8-3.21 2.04-3.21 1.04 0 1.74.74 1.87 2.11h4.35c-.03-3.4-2.45-5.62-6.29-5.62-4.25 0-6.76 2.73-6.76 6.75s2.51 6.75 6.76 6.75zM153.7 35v-7.09h-4.42V41h4.42l3.64-7.12V41h4.41V27.91h-4.41L153.7 35zM171.65 41H176V27.91h-6.12c-3.76 0-6.14 1.9-6.11 4.57-.02 1.49.87 2.73 2.44 3.46L163.63 41h4.32l2.2-4.33h1.5V41zm0-7.16H170c-1.25 0-1.83-.61-1.8-1.2-.03-.54.51-1.22 1.7-1.22h1.76v2.42z"/>
</svg>
